<svg xmlns="http://www.w3.org/2000/svg" xmlns:xlink="http://www.w3.org/1999/xlink" width="1568pt" height="644pt" viewBox="0.00 0.00 1568.07 643.80">
<g id="graph0" class="graph" transform="scale(1 1) rotate(0) translate(4 639.8)">
<title>HD_Cinema</title>
<polygon fill="white" stroke="none" points="-4,4 -4,-639.8 1564.07,-639.8 1564.07,4 -4,4"/>
<!-- Inicio -->
<g id="node1" class="node">
<title>Inicio</title>
<ellipse fill="lightblue" stroke="black" cx="985.34" cy="-617.8" rx="33.56" ry="18"/>
<text text-anchor="middle" x="985.34" y="-613.6" font-family="Times,serif" font-size="14.00">Inicio</text>
</g>
<!-- Decision -->
<g id="node3" class="node">
<title>Decision</title>
<polygon fill="lightgray" stroke="black" points="985.34,-562.8 792.61,-544.8 985.34,-526.8 1178.07,-544.8 985.34,-562.8"/>
<text text-anchor="middle" x="985.34" y="-540.6" font-family="Times,serif" font-size="14.00">¿Eres Administrador o Usuario?</text>
</g>
<!-- Inicio&#45;&gt;Decision -->
<g id="edge1" class="edge">
<title>Inicio-&gt;Decision</title>
<path fill="none" stroke="black" d="M985.34,-599.61C985.34,-592.03 985.34,-582.9 985.34,-574.34"/>
<polygon fill="black" stroke="black" points="988.84,-574.34 985.34,-564.34 981.84,-574.34 988.84,-574.34"/>
</g>
<!-- Fin -->
<g id="node2" class="node">
<title>Fin</title>
<ellipse fill="lightblue" stroke="black" cx="941.34" cy="-18" rx="27" ry="18"/>
<text text-anchor="middle" x="941.34" y="-13.8" font-family="Times,serif" font-size="14.00">Fin</text>
</g>
<!-- LoginAdmin -->
<g id="node4" class="node">
<title>LoginAdmin</title>
<polygon fill="lightyellow" stroke="black" points="985.74,-474 557.19,-474 446.95,-438 875.49,-438 985.74,-474"/>
<text text-anchor="middle" x="716.34" y="-451.8" font-family="Times,serif" font-size="14.00">Login Administrador (Aprender del imbecil)</text>
</g>
<!-- Decision&#45;&gt;LoginAdmin -->
<g id="edge2" class="edge">
<title>Decision-&gt;LoginAdmin</title>
<path fill="none" stroke="black" d="M943.31,-530.24C899.81,-516.2 831.29,-494.09 780.91,-477.84"/>
<polygon fill="black" stroke="black" points="782.16,-474.56 771.57,-474.82 780.01,-481.22 782.16,-474.56"/>
<text text-anchor="middle" x="915.76" y="-496.2" font-family="Times,serif" font-size="14.00">Administrador</text>
</g>
<!-- LoginUser -->
<g id="node5" class="node">
<title>LoginUser</title>
<polygon fill="lightyellow" stroke="black" points="1510.46,-474 1109.4,-474 1006.22,-438 1407.29,-438 1510.46,-474"/>
<text text-anchor="middle" x="1258.34" y="-451.8" font-family="Times,serif" font-size="14.00">Login/Registro Usuario (Manual/Google)</text>
</g>
<!-- Decision&#45;&gt;LoginUser -->
<g id="edge15" class="edge">
<title>Decision-&gt;LoginUser</title>
<path fill="none" stroke="black" d="M1027.7,-530.33C1071.79,-516.31 1141.43,-494.17 1192.66,-477.88"/>
<polygon fill="black" stroke="black" points="1193.72,-481.22 1202.18,-474.86 1191.59,-474.55 1193.72,-481.22"/>
<text text-anchor="middle" x="1168.46" y="-496.2" font-family="Times,serif" font-size="14.00">Usuario</text>
</g>
<!-- PanelAdmin -->
<g id="node8" class="node">
<title>PanelAdmin</title>
<polygon fill="white" stroke="black" points="845.44,-401 559.25,-401 559.25,-365 845.44,-365 845.44,-401"/>
<text text-anchor="middle" x="702.34" y="-378.8" font-family="Times,serif" font-size="14.00">Panel de Administración (Aprender del imbecil)</text>
</g>
<!-- LoginAdmin&#45;&gt;PanelAdmin -->
<g id="edge3" class="edge">
<title>LoginAdmin-&gt;PanelAdmin</title>
<path fill="none" stroke="black" d="M712.95,-437.81C711.44,-430.14 709.62,-420.89 707.91,-412.24"/>
<polygon fill="black" stroke="black" points="711.36,-411.65 705.99,-402.51 704.49,-413 711.36,-411.65"/>
</g>
<!-- VerificarCorreo -->
<g id="node6" class="node">
<title>VerificarCorreo</title>
<polygon fill="lightyellow" stroke="black" points="1544.44,-401 1164.09,-401 1066.25,-365 1446.59,-365 1544.44,-401"/>
<text text-anchor="middle" x="1305.34" y="-378.8" font-family="Times,serif" font-size="14.00">Enviar correo con link de confirmación</text>
</g>
<!-- LoginUser&#45;&gt;VerificarCorreo -->
<g id="edge16" class="edge">
<title>LoginUser-&gt;VerificarCorreo</title>
<path fill="none" stroke="black" d="M1269.72,-437.81C1275.15,-429.62 1281.76,-419.62 1287.81,-410.48"/>
<polygon fill="black" stroke="black" points="1290.63,-412.56 1293.23,-402.29 1284.8,-408.7 1290.63,-412.56"/>
</g>
<!-- Explorar -->
<g id="node14" class="node">
<title>Explorar</title>
<polygon fill="white" stroke="black" points="1560.07,-328 1358.61,-328 1358.61,-292 1560.07,-292 1560.07,-328"/>
<text text-anchor="middle" x="1459.34" y="-305.8" font-family="Times,serif" font-size="14.00">Explorar Categorías y Productos</text>
</g>
<!-- VerificarCorreo&#45;&gt;Explorar -->
<g id="edge17" class="edge">
<title>VerificarCorreo-&gt;Explorar</title>
<path fill="none" stroke="black" d="M1343.01,-364.63C1363.52,-355.18 1389.12,-343.38 1411.08,-333.25"/>
<polygon fill="black" stroke="black" points="1412.53,-336.43 1420.15,-329.07 1409.6,-330.08 1412.53,-336.43"/>
</g>
<!-- SyncFrontend -->
<g id="node7" class="node">
<title>SyncFrontend</title>
<polygon fill="lightyellow" stroke="black" points="1118.61,-255 551.86,-255 406.07,-219 972.82,-219 1118.61,-255"/>
<text text-anchor="middle" x="762.34" y="-232.8" font-family="Times,serif" font-size="14.00">Actualizar Contenido en el Frontend (Aprender del imbecil)</text>
</g>
<!-- SyncFrontend&#45;&gt;Fin -->
<g id="edge14" class="edge">
<title>SyncFrontend-&gt;Fin</title>
<path fill="none" stroke="black" d="M776.69,-218.61C808.53,-180.01 885.17,-87.1 921.54,-43"/>
<polygon fill="black" stroke="black" points="924.24,-45.24 927.9,-35.29 918.84,-40.78 924.24,-45.24"/>
</g>
<!-- Categorias -->
<g id="node9" class="node">
<title>Categorias</title>
<polygon fill="white" stroke="black" points="268.68,-328 0,-328 0,-292 268.68,-292 268.68,-328"/>
<text text-anchor="middle" x="134.34" y="-305.8" font-family="Times,serif" font-size="14.00">Gestionar Categorías (Aprender del imbecil)</text>
</g>
<!-- PanelAdmin&#45;&gt;Categorias -->
<g id="edge4" class="edge">
<title>PanelAdmin-&gt;Categorias</title>
<path fill="none" stroke="black" d="M562.67,-364.54C476.92,-353.82 367.26,-340.11 280.36,-329.25"/>
<polygon fill="black" stroke="black" points="280.93,-325.8 270.57,-328.03 280.06,-332.74 280.93,-325.8"/>
</g>
<!-- Productos -->
<g id="node10" class="node">
<title>Productos</title>
<polygon fill="white" stroke="black" points="548.19,-328 286.49,-328 286.49,-292 548.19,-292 548.19,-328"/>
<text text-anchor="middle" x="417.34" y="-305.8" font-family="Times,serif" font-size="14.00">Gestionar Productos (Aprender del imbecil)</text>
</g>
<!-- PanelAdmin&#45;&gt;Productos -->
<g id="edge5" class="edge">
<title>PanelAdmin-&gt;Productos</title>
<path fill="none" stroke="black" d="M632.26,-364.54C591.71,-354.44 540.51,-341.68 498.25,-331.16"/>
<polygon fill="black" stroke="black" points="499.17,-327.78 488.62,-328.76 497.48,-334.57 499.17,-327.78"/>
</g>
<!-- Ofertas -->
<g id="node11" class="node">
<title>Ofertas</title>
<polygon fill="white" stroke="black" points="790.12,-328 566.56,-328 566.56,-292 790.12,-292 790.12,-328"/>
<text text-anchor="middle" x="678.34" y="-305.8" font-family="Times,serif" font-size="14.00">Crear Ofertas (Aprender del imbecil)</text>
</g>
<!-- PanelAdmin&#45;&gt;Ofertas -->
<g id="edge6" class="edge">
<title>PanelAdmin-&gt;Ofertas</title>
<path fill="none" stroke="black" d="M696.53,-364.81C693.88,-356.96 690.67,-347.47 687.69,-338.66"/>
<polygon fill="black" stroke="black" points="691.1,-337.82 684.58,-329.46 684.47,-340.06 691.1,-337.82"/>
</g>
<!-- Servicios -->
<g id="node12" class="node">
<title>Servicios</title>
<polygon fill="white" stroke="black" points="1066.25,-328 808.44,-328 808.44,-292 1066.25,-292 1066.25,-328"/>
<text text-anchor="middle" x="937.34" y="-305.8" font-family="Times,serif" font-size="14.00">Gestionar Servicios (Aprender del imbecil)</text>
</g>
<!-- PanelAdmin&#45;&gt;Servicios -->
<g id="edge7" class="edge">
<title>PanelAdmin-&gt;Servicios</title>
<path fill="none" stroke="black" d="M760.13,-364.54C792.99,-354.61 834.35,-342.12 868.84,-331.7"/>
<polygon fill="black" stroke="black" points="869.77,-335.07 878.33,-328.83 867.74,-328.37 869.77,-335.07"/>
</g>
<!-- Galeria -->
<g id="node13" class="node">
<title>Galeria</title>
<polygon fill="white" stroke="black" points="1340.49,-328 1084.2,-328 1084.2,-292 1340.49,-292 1340.49,-328"/>
<text text-anchor="middle" x="1212.34" y="-305.8" font-family="Times,serif" font-size="14.00">Subir Fotos/Videos (Aprender del imbecil)</text>
</g>
<!-- PanelAdmin&#45;&gt;Galeria -->
<g id="edge8" class="edge">
<title>PanelAdmin-&gt;Galeria</title>
<path fill="none" stroke="black" d="M827.76,-364.54C902.95,-354.07 998.62,-340.75 1075.73,-330.02"/>
<polygon fill="black" stroke="black" points="1076.05,-333.51 1085.47,-328.66 1075.09,-326.57 1076.05,-333.51"/>
</g>
<!-- Categorias&#45;&gt;SyncFrontend -->
<g id="edge9" class="edge">
<title>Categorias-&gt;SyncFrontend</title>
<path fill="none" stroke="black" d="M269.07,-292.96C271.85,-292.63 274.61,-292.31 277.34,-292 381.57,-280 498.46,-266.98 591.36,-256.72"/>
<polygon fill="black" stroke="black" points="591.51,-260.23 601.07,-255.65 590.74,-253.27 591.51,-260.23"/>
</g>
<!-- Productos&#45;&gt;SyncFrontend -->
<g id="edge10" class="edge">
<title>Productos-&gt;SyncFrontend</title>
<path fill="none" stroke="black" d="M502.18,-291.54C551.9,-281.31 614.86,-268.35 666.38,-257.75"/>
<polygon fill="black" stroke="black" points="666.96,-261.2 676.05,-255.76 665.55,-254.35 666.96,-261.2"/>
</g>
<!-- Ofertas&#45;&gt;SyncFrontend -->
<g id="edge11" class="edge">
<title>Ofertas-&gt;SyncFrontend</title>
<path fill="none" stroke="black" d="M698.68,-291.81C709.02,-283.07 721.78,-272.28 733.15,-262.67"/>
<polygon fill="black" stroke="black" points="735.37,-265.38 740.75,-256.25 730.85,-260.03 735.37,-265.38"/>
</g>
<!-- Servicios&#45;&gt;SyncFrontend -->
<g id="edge12" class="edge">
<title>Servicios-&gt;SyncFrontend</title>
<path fill="none" stroke="black" d="M894.53,-291.63C870.8,-282 841.08,-269.95 815.83,-259.7"/>
<polygon fill="black" stroke="black" points="817.3,-256.52 806.72,-256 814.67,-263.01 817.3,-256.52"/>
</g>
<!-- Galeria&#45;&gt;SyncFrontend -->
<g id="edge13" class="edge">
<title>Galeria-&gt;SyncFrontend</title>
<path fill="none" stroke="black" d="M1101.68,-291.54C1035.74,-281.14 951.95,-267.92 884.13,-257.22"/>
<polygon fill="black" stroke="black" points="884.88,-253.79 874.46,-255.69 883.79,-260.71 884.88,-253.79"/>
</g>
<!-- Disponibilidad -->
<g id="node15" class="node">
<title>Disponibilidad</title>
<polygon fill="white" stroke="black" points="1346.92,-255 1189.76,-255 1189.76,-219 1346.92,-219 1346.92,-255"/>
<text text-anchor="middle" x="1268.34" y="-232.8" font-family="Times,serif" font-size="14.00">Consultar Disponibilidad</text>
</g>
<!-- Explorar&#45;&gt;Disponibilidad -->
<g id="edge18" class="edge">
<title>Explorar-&gt;Disponibilidad</title>
<path fill="none" stroke="black" d="M1412.62,-291.63C1386.49,-281.92 1353.7,-269.73 1325.99,-259.43"/>
<polygon fill="black" stroke="black" points="1327.26,-256.17 1316.66,-255.96 1324.82,-262.73 1327.26,-256.17"/>
</g>
<!-- VerOfertas -->
<g id="node16" class="node">
<title>VerOfertas</title>
<polygon fill="white" stroke="black" points="1284.32,-182 1156.37,-182 1156.37,-146 1284.32,-146 1284.32,-182"/>
<text text-anchor="middle" x="1220.34" y="-159.8" font-family="Times,serif" font-size="14.00">Ver Ofertas Activas</text>
</g>
<!-- Disponibilidad&#45;&gt;VerOfertas -->
<g id="edge19" class="edge">
<title>Disponibilidad-&gt;VerOfertas</title>
<path fill="none" stroke="black" d="M1256.72,-218.81C1251.18,-210.62 1244.43,-200.62 1238.25,-191.48"/>
<polygon fill="black" stroke="black" points="1241.2,-189.61 1232.7,-183.28 1235.4,-193.53 1241.2,-189.61"/>
</g>
<!-- VerGaleria -->
<g id="node17" class="node">
<title>VerGaleria</title>
<polygon fill="white" stroke="black" points="1221.18,-109 1041.5,-109 1041.5,-73 1221.18,-73 1221.18,-109"/>
<text text-anchor="middle" x="1131.34" y="-86.8" font-family="Times,serif" font-size="14.00">Ver Galería de Fotos/Videos</text>
</g>
<!-- VerOfertas&#45;&gt;VerGaleria -->
<g id="edge20" class="edge">
<title>VerOfertas-&gt;VerGaleria</title>
<path fill="none" stroke="black" d="M1198.8,-145.81C1187.73,-136.98 1174.05,-126.07 1161.91,-116.39"/>
<polygon fill="black" stroke="black" points="1164.18,-113.72 1154.18,-110.22 1159.81,-119.19 1164.18,-113.72"/>
</g>
<!-- VerGaleria&#45;&gt;Fin -->
<g id="edge21" class="edge">
<title>VerGaleria-&gt;Fin</title>
<path fill="none" stroke="black" d="M1084.86,-72.63C1050.91,-59.94 1005.65,-43.03 975.11,-31.62"/>
<polygon fill="black" stroke="black" points="976.58,-28.43 965.99,-28.21 974.13,-34.99 976.58,-28.43"/>
</g>
</g>
</svg>