<svg xmlns="http://www.w3.org/2000/svg" xmlns:xlink="http://www.w3.org/1999/xlink" width="1036pt" height="571pt" viewBox="0.00 0.00 1035.57 570.80">
<g id="graph0" class="graph" transform="scale(1 1) rotate(0) translate(4 566.8)">
<title>HD_Cinema</title>
<polygon fill="white" stroke="none" points="-4,4 -4,-566.8 1031.57,-566.8 1031.57,4 -4,4"/>
<!-- Inicio -->
<g id="node1" class="node">
<title>Inicio</title>
<ellipse fill="lightblue" stroke="black" cx="568.45" cy="-544.8" rx="33.56" ry="18"/>
<text text-anchor="middle" x="568.45" y="-540.6" font-family="Times,serif" font-size="14.00">Inicio</text>
</g>
<!-- Decision -->
<g id="node3" class="node">
<title>Decision</title>
<polygon fill="lightgray" stroke="black" points="568.45,-489.8 375.72,-471.8 568.45,-453.8 761.18,-471.8 568.45,-489.8"/>
<text text-anchor="middle" x="568.45" y="-467.6" font-family="Times,serif" font-size="14.00">¿Eres Administrador o Usuario?</text>
</g>
<!-- Inicio&#45;&gt;Decision -->
<g id="edge1" class="edge">
<title>Inicio-&gt;Decision</title>
<path fill="none" stroke="black" d="M568.45,-526.61C568.45,-519.03 568.45,-509.9 568.45,-501.34"/>
<polygon fill="black" stroke="black" points="571.95,-501.34 568.45,-491.34 564.95,-501.34 571.95,-501.34"/>
</g>
<!-- Fin -->
<g id="node2" class="node">
<title>Fin</title>
<ellipse fill="lightblue" stroke="black" cx="502.45" cy="-18" rx="27" ry="18"/>
<text text-anchor="middle" x="502.45" y="-13.8" font-family="Times,serif" font-size="14.00">Fin</text>
</g>
<!-- LoginAdmin -->
<g id="node4" class="node">
<title>LoginAdmin</title>
<polygon fill="lightyellow" stroke="black" points="502.58,-401 286.03,-401 230.33,-365 446.87,-365 502.58,-401"/>
<text text-anchor="middle" x="366.45" y="-378.8" font-family="Times,serif" font-size="14.00">Login Administrador</text>
</g>
<!-- Decision&#45;&gt;LoginAdmin -->
<g id="edge2" class="edge">
<title>Decision-&gt;LoginAdmin</title>
<path fill="none" stroke="black" d="M535.1,-456.47C503.07,-442.71 454.26,-421.73 417.37,-405.88"/>
<polygon fill="black" stroke="black" points="418.78,-402.68 408.21,-401.94 416.02,-409.11 418.78,-402.68"/>
<text text-anchor="middle" x="526.37" y="-423.2" font-family="Times,serif" font-size="14.00">Administrador</text>
</g>
<!-- LoginUser -->
<g id="node5" class="node">
<title>LoginUser</title>
<polygon fill="lightyellow" stroke="black" points="1027.57,-401 626.51,-401 523.33,-365 924.4,-365 1027.57,-401"/>
<text text-anchor="middle" x="775.45" y="-378.8" font-family="Times,serif" font-size="14.00">Login/Registro Usuario (Manual/Google)</text>
</g>
<!-- Decision&#45;&gt;LoginUser -->
<g id="edge15" class="edge">
<title>Decision-&gt;LoginUser</title>
<path fill="none" stroke="black" d="M602.17,-456.66C635.05,-442.87 685.52,-421.71 723.53,-405.77"/>
<polygon fill="black" stroke="black" points="724.63,-409.11 732.5,-402.01 721.92,-402.65 724.63,-409.11"/>
<text text-anchor="middle" x="712.66" y="-423.2" font-family="Times,serif" font-size="14.00">Usuario</text>
</g>
<!-- PanelAdmin -->
<g id="node7" class="node">
<title>PanelAdmin</title>
<polygon fill="white" stroke="black" points="426.66,-328 272.25,-328 272.25,-292 426.66,-292 426.66,-328"/>
<text text-anchor="middle" x="349.45" y="-305.8" font-family="Times,serif" font-size="14.00">Panel de Administración</text>
</g>
<!-- LoginAdmin&#45;&gt;PanelAdmin -->
<g id="edge3" class="edge">
<title>LoginAdmin-&gt;PanelAdmin</title>
<path fill="none" stroke="black" d="M362.34,-364.81C360.48,-357.05 358.24,-347.68 356.15,-338.95"/>
<polygon fill="black" stroke="black" points="359.62,-338.41 353.88,-329.5 352.81,-340.04 359.62,-338.41"/>
</g>
<!-- Explorar -->
<g id="node13" class="node">
<title>Explorar</title>
<polygon fill="white" stroke="black" points="877.18,-328 675.72,-328 675.72,-292 877.18,-292 877.18,-328"/>
<text text-anchor="middle" x="776.45" y="-305.8" font-family="Times,serif" font-size="14.00">Explorar Categorías y Productos</text>
</g>
<!-- LoginUser&#45;&gt;Explorar -->
<g id="edge16" class="edge">
<title>LoginUser-&gt;Explorar</title>
<path fill="none" stroke="black" d="M775.7,-364.81C775.8,-357.23 775.93,-348.1 776.05,-339.54"/>
<polygon fill="black" stroke="black" points="779.55,-339.59 776.19,-329.54 772.55,-339.49 779.55,-339.59"/>
</g>
<!-- SyncFrontend -->
<g id="node6" class="node">
<title>SyncFrontend</title>
<polygon fill="lightyellow" stroke="black" points="620.45,-182 265.71,-182 174.45,-146 529.2,-146 620.45,-182"/>
<text text-anchor="middle" x="397.45" y="-159.8" font-family="Times,serif" font-size="14.00">Actualizar Contenido en el Frontend</text>
</g>
<!-- SyncFrontend&#45;&gt;Fin -->
<g id="edge14" class="edge">
<title>SyncFrontend-&gt;Fin</title>
<path fill="none" stroke="black" d="M410.12,-145.63C428.64,-120.23 463.22,-72.81 484.4,-43.76"/>
<polygon fill="black" stroke="black" points="487.07,-46.04 490.14,-35.89 481.42,-41.91 487.07,-46.04"/>
</g>
<!-- Categorias -->
<g id="node8" class="node">
<title>Categorias</title>
<polygon fill="white" stroke="black" points="136.91,-255 0,-255 0,-219 136.91,-219 136.91,-255"/>
<text text-anchor="middle" x="68.45" y="-232.8" font-family="Times,serif" font-size="14.00">Gestionar Categorías</text>
</g>
<!-- PanelAdmin&#45;&gt;Categorias -->
<g id="edge4" class="edge">
<title>PanelAdmin-&gt;Categorias</title>
<path fill="none" stroke="black" d="M280.35,-291.54C240.38,-281.44 189.89,-268.68 148.23,-258.16"/>
<polygon fill="black" stroke="black" points="149.31,-254.82 138.75,-255.76 147.59,-261.61 149.31,-254.82"/>
</g>
<!-- Productos -->
<g id="node9" class="node">
<title>Productos</title>
<polygon fill="white" stroke="black" points="284.42,-255 154.49,-255 154.49,-219 284.42,-219 284.42,-255"/>
<text text-anchor="middle" x="219.45" y="-232.8" font-family="Times,serif" font-size="14.00">Gestionar Productos</text>
</g>
<!-- PanelAdmin&#45;&gt;Productos -->
<g id="edge5" class="edge">
<title>PanelAdmin-&gt;Productos</title>
<path fill="none" stroke="black" d="M317.65,-291.63C300.73,-282.39 279.71,-270.91 261.47,-260.95"/>
<polygon fill="black" stroke="black" points="263.16,-257.88 252.71,-256.16 259.8,-264.03 263.16,-257.88"/>
</g>
<!-- Ofertas -->
<g id="node10" class="node">
<title>Ofertas</title>
<polygon fill="white" stroke="black" points="394.35,-255 302.56,-255 302.56,-219 394.35,-219 394.35,-255"/>
<text text-anchor="middle" x="348.45" y="-232.8" font-family="Times,serif" font-size="14.00">Crear Ofertas</text>
</g>
<!-- PanelAdmin&#45;&gt;Ofertas -->
<g id="edge6" class="edge">
<title>PanelAdmin-&gt;Ofertas</title>
<path fill="none" stroke="black" d="M349.21,-291.81C349.1,-284.23 348.98,-275.1 348.86,-266.54"/>
<polygon fill="black" stroke="black" points="352.36,-266.49 348.71,-256.54 345.36,-266.59 352.36,-266.49"/>
</g>
<!-- Servicios -->
<g id="node11" class="node">
<title>Servicios</title>
<polygon fill="white" stroke="black" points="538.47,-255 412.44,-255 412.44,-219 538.47,-219 538.47,-255"/>
<text text-anchor="middle" x="475.45" y="-232.8" font-family="Times,serif" font-size="14.00">Gestionar Servicios</text>
</g>
<!-- PanelAdmin&#45;&gt;Servicios -->
<g id="edge7" class="edge">
<title>PanelAdmin-&gt;Servicios</title>
<path fill="none" stroke="black" d="M380.28,-291.63C396.6,-282.43 416.86,-271.02 434.49,-261.08"/>
<polygon fill="black" stroke="black" points="436.2,-264.14 443.19,-256.18 432.76,-258.04 436.2,-264.14"/>
</g>
<!-- Galeria -->
<g id="node12" class="node">
<title>Galeria</title>
<polygon fill="white" stroke="black" points="680.71,-255 556.2,-255 556.2,-219 680.71,-219 680.71,-255"/>
<text text-anchor="middle" x="618.45" y="-232.8" font-family="Times,serif" font-size="14.00">Subir Fotos/Videos</text>
</g>
<!-- PanelAdmin&#45;&gt;Galeria -->
<g id="edge8" class="edge">
<title>PanelAdmin-&gt;Galeria</title>
<path fill="none" stroke="black" d="M415.6,-291.54C454.71,-281.22 504.31,-268.13 544.67,-257.47"/>
<polygon fill="black" stroke="black" points="545.56,-260.86 554.33,-254.92 543.77,-254.09 545.56,-260.86"/>
</g>
<!-- Categorias&#45;&gt;SyncFrontend -->
<g id="edge9" class="edge">
<title>Categorias-&gt;SyncFrontend</title>
<path fill="none" stroke="black" d="M137.3,-220.78C140.05,-220.18 142.78,-219.58 145.45,-219 197.97,-207.58 256.69,-194.98 304.22,-184.83"/>
<polygon fill="black" stroke="black" points="304.9,-188.27 313.95,-182.76 303.44,-181.42 304.9,-188.27"/>
</g>
<!-- Productos&#45;&gt;SyncFrontend -->
<g id="edge10" class="edge">
<title>Productos-&gt;SyncFrontend</title>
<path fill="none" stroke="black" d="M263,-218.63C287.24,-208.96 317.63,-196.84 343.39,-186.56"/>
<polygon fill="black" stroke="black" points="344.35,-189.95 352.34,-183 341.75,-183.45 344.35,-189.95"/>
</g>
<!-- Ofertas&#45;&gt;SyncFrontend -->
<g id="edge11" class="edge">
<title>Ofertas-&gt;SyncFrontend</title>
<path fill="none" stroke="black" d="M360.32,-218.81C365.97,-210.62 372.87,-200.62 379.18,-191.48"/>
<polygon fill="black" stroke="black" points="382.04,-193.49 384.84,-183.27 376.28,-189.52 382.04,-193.49"/>
</g>
<!-- Servicios&#45;&gt;SyncFrontend -->
<g id="edge12" class="edge">
<title>Servicios-&gt;SyncFrontend</title>
<path fill="none" stroke="black" d="M456.57,-218.81C447.06,-210.16 435.35,-199.5 424.87,-189.96"/>
<polygon fill="black" stroke="black" points="427.3,-187.44 417.55,-183.29 422.59,-192.61 427.3,-187.44"/>
</g>
<!-- Galeria&#45;&gt;SyncFrontend -->
<g id="edge13" class="edge">
<title>Galeria-&gt;SyncFrontend</title>
<path fill="none" stroke="black" d="M564.11,-218.54C533.33,-208.65 494.65,-196.23 462.3,-185.83"/>
<polygon fill="black" stroke="black" points="463.62,-182.58 453.03,-182.85 461.48,-189.25 463.62,-182.58"/>
</g>
<!-- Disponibilidad -->
<g id="node14" class="node">
<title>Disponibilidad</title>
<polygon fill="white" stroke="black" points="856.03,-255 698.87,-255 698.87,-219 856.03,-219 856.03,-255"/>
<text text-anchor="middle" x="777.45" y="-232.8" font-family="Times,serif" font-size="14.00">Consultar Disponibilidad</text>
</g>
<!-- Explorar&#45;&gt;Disponibilidad -->
<g id="edge17" class="edge">
<title>Explorar-&gt;Disponibilidad</title>
<path fill="none" stroke="black" d="M776.7,-291.81C776.8,-284.23 776.93,-275.1 777.05,-266.54"/>
<polygon fill="black" stroke="black" points="780.55,-266.59 777.19,-256.54 773.55,-266.49 780.55,-266.59"/>
</g>
<!-- VerOfertas -->
<g id="node15" class="node">
<title>VerOfertas</title>
<polygon fill="white" stroke="black" points="809.43,-182 681.48,-182 681.48,-146 809.43,-146 809.43,-182"/>
<text text-anchor="middle" x="745.45" y="-159.8" font-family="Times,serif" font-size="14.00">Ver Ofertas Activas</text>
</g>
<!-- Disponibilidad&#45;&gt;VerOfertas -->
<g id="edge18" class="edge">
<title>Disponibilidad-&gt;VerOfertas</title>
<path fill="none" stroke="black" d="M769.71,-218.81C766.13,-210.88 761.8,-201.26 757.79,-192.36"/>
<polygon fill="black" stroke="black" points="761.05,-191.09 753.75,-183.41 754.67,-193.96 761.05,-191.09"/>
</g>
<!-- VerGaleria -->
<g id="node16" class="node">
<title>VerGaleria</title>
<polygon fill="white" stroke="black" points="745.29,-109 565.61,-109 565.61,-73 745.29,-73 745.29,-109"/>
<text text-anchor="middle" x="655.45" y="-86.8" font-family="Times,serif" font-size="14.00">Ver Galería de Fotos/Videos</text>
</g>
<!-- VerOfertas&#45;&gt;VerGaleria -->
<g id="edge19" class="edge">
<title>VerOfertas-&gt;VerGaleria</title>
<path fill="none" stroke="black" d="M723.67,-145.81C712.47,-136.98 698.64,-126.07 686.37,-116.39"/>
<polygon fill="black" stroke="black" points="688.56,-113.66 678.54,-110.21 684.22,-119.15 688.56,-113.66"/>
</g>
<!-- VerGaleria&#45;&gt;Fin -->
<g id="edge20" class="edge">
<title>VerGaleria-&gt;Fin</title>
<path fill="none" stroke="black" d="M618.03,-72.63C592.44,-60.76 558.89,-45.19 534.53,-33.88"/>
<polygon fill="black" stroke="black" points="536.29,-30.84 525.75,-29.81 533.34,-37.19 536.29,-30.84"/>
</g>
</g>
</svg>